<?xml version="1.0" encoding="UTF-8" standalone="no"?>
<!-- Created with Inkscape (http://www.inkscape.org/) -->

<svg
   xmlns:osb="http://www.openswatchbook.org/uri/2009/osb"
   xmlns:dc="http://purl.org/dc/elements/1.1/"
   xmlns:cc="http://creativecommons.org/ns#"
   xmlns:rdf="http://www.w3.org/1999/02/22-rdf-syntax-ns#"
   xmlns:svg="http://www.w3.org/2000/svg"
   xmlns="http://www.w3.org/2000/svg"
   xmlns:xlink="http://www.w3.org/1999/xlink"
   xmlns:sodipodi="http://sodipodi.sourceforge.net/DTD/sodipodi-0.dtd"
   xmlns:inkscape="http://www.inkscape.org/namespaces/inkscape"
   width="210mm"
   height="297mm"
   viewBox="0 0 210 297"
   version="1.1"
   id="svg8"
   inkscape:version="0.92.4 (5da689c313, 2019-01-14)"
   sodipodi:docname="Explosion.svg"
   inkscape:export-filename="D:\Unity Projects\Project_Boost\Assets\Images\Explosion.png"
   inkscape:export-xdpi="92.602303"
   inkscape:export-ydpi="92.602303">
  <defs
     id="defs2">
    <linearGradient
       id="linearGradient5180"
       osb:paint="gradient">
      <stop
         style="stop-color:#ffffff;stop-opacity:0.01010101"
         offset="0"
         id="stop5176" />
      <stop
         id="stop5184"
         offset="0.60919541"
         style="stop-color:#ffffff;stop-opacity:0" />
      <stop
         style="stop-color:#ffffff;stop-opacity:1"
         offset="1"
         id="stop5178" />
    </linearGradient>
    <radialGradient
       inkscape:collect="always"
       xlink:href="#linearGradient5180"
       id="radialGradient5182"
       cx="54.522984"
       cy="54.853809"
       fx="54.522984"
       fy="54.853809"
       r="47.039433"
       gradientUnits="userSpaceOnUse"
       gradientTransform="matrix(-4.1918362e-8,0.98863638,-1,-5.1196287e-7,109.3768,0.95043258)" />
    <filter
       inkscape:collect="always"
       style="color-interpolation-filters:sRGB"
       id="filter7518"
       x="-0.12340696"
       width="1.2468139"
       y="-0.13644747"
       height="1.2728949">
      <feGaussianBlur
         inkscape:collect="always"
         stdDeviation="4.7951927"
         id="feGaussianBlur7520" />
    </filter>
    <filter
       inkscape:collect="always"
       style="color-interpolation-filters:sRGB;"
       id="filter12115"
       x="-0.15922503"
       width="1.3184501"
       y="-0.18326196"
       height="1.3665239"
       inkscape:label="Noise Fill">
      <feGaussianBlur
         inkscape:collect="always"
         stdDeviation="4.9593899"
         id="feGaussianBlur12117"
         result="fbSourceGraphic" />
      <feColorMatrix
         result="fbSourceGraphicAlpha"
         in="fbSourceGraphic"
         values="0 0 0 -1 0 0 0 0 -1 0 0 0 0 -1 0 0 0 0 1 0"
         id="feColorMatrix12119" />
      <feTurbulence
         id="feTurbulence12121"
         type="fractalNoise"
         baseFrequency="0.05209 0.05209"
         numOctaves="5"
         seed="9"
         result="turbulence"
         in="fbSourceGraphic" />
      <feComposite
         in2="turbulence"
         id="feComposite12123"
         in="fbSourceGraphic"
         operator="in"
         result="composite1" />
      <feColorMatrix
         id="feColorMatrix12125"
         values="1 0 0 0 0 0 1 0 0 0 0 0 1 0 0 0 0 0 2.6 -0.4 "
         result="color" />
      <feFlood
         id="feFlood12127"
         flood-opacity="0.258824"
         flood-color="rgb(255,255,255)"
         result="flood" />
      <feMerge
         id="feMerge12129"
         result="merge">
        <feMergeNode
           id="feMergeNode12131"
           in="flood" />
        <feMergeNode
           id="feMergeNode12133"
           in="color" />
      </feMerge>
      <feComposite
         in2="fbSourceGraphic"
         id="feComposite12135"
         operator="in"
         result="composite2" />
    </filter>
    <filter
       inkscape:collect="always"
       style="color-interpolation-filters:sRGB"
       id="filter12545"
       x="-0.056034326"
       width="1.1120687"
       y="-0.15006903"
       height="1.3001381">
      <feGaussianBlur
         inkscape:collect="always"
         stdDeviation="1.8671163"
         id="feGaussianBlur12547" />
    </filter>
  </defs>
  <sodipodi:namedview
     id="base"
     pagecolor="#ffffff"
     bordercolor="#666666"
     borderopacity="1.0"
     inkscape:pageopacity="0.0"
     inkscape:pageshadow="2"
     inkscape:zoom="0.49497475"
     inkscape:cx="260.61782"
     inkscape:cy="741.36062"
     inkscape:document-units="mm"
     inkscape:current-layer="layer1"
     showgrid="false"
     inkscape:snap-bbox="true"
     inkscape:snap-global="true"
     inkscape:snap-bbox-edge-midpoints="false"
     inkscape:snap-bbox-midpoints="false"
     inkscape:window-width="1360"
     inkscape:window-height="705"
     inkscape:window-x="-8"
     inkscape:window-y="-8"
     inkscape:window-maximized="1" />
  <metadata
     id="metadata5">
    <rdf:RDF>
      <cc:Work
         rdf:about="">
        <dc:format>image/svg+xml</dc:format>
        <dc:type
           rdf:resource="http://purl.org/dc/dcmitype/StillImage" />
        <dc:title />
      </cc:Work>
    </rdf:RDF>
  </metadata>
  <g
     inkscape:label="Layer 1"
     inkscape:groupmode="layer"
     id="layer1">
    <rect
       id="rect3713"
       width="101.56242"
       height="101.56242"
       x="3.7417731"
       y="3.5380578"
       style="stroke-width:0.24582313"
       inkscape:export-xdpi="128.04736"
       inkscape:export-ydpi="128.04736" />
    <rect
       style="stroke-width:0.24582313"
       y="3.5380578"
       x="105.3042"
       height="101.56242"
       width="101.56242"
       id="rect3715"
       inkscape:export-xdpi="128.04736"
       inkscape:export-ydpi="128.04736" />
    <rect
       style="stroke-width:0.24582313"
       y="105.10048"
       x="3.7417703"
       height="101.56242"
       width="101.56242"
       id="rect3717"
       inkscape:export-xdpi="128.04736"
       inkscape:export-ydpi="128.04736" />
    <rect
       id="rect3719"
       width="101.56242"
       height="101.56242"
       x="105.3042"
       y="105.10048"
       style="stroke-width:0.24582313"
       inkscape:export-xdpi="128.04736"
       inkscape:export-ydpi="128.04736" />
    <circle
       style="fill:url(#radialGradient5182);stroke-width:0.30043012;fill-opacity:1"
       id="path3721"
       cx="54.522984"
       cy="54.319271"
       r="47.039433"
       inkscape:export-xdpi="128.04736"
       inkscape:export-ydpi="128.04736" />
    <path
       style="opacity:0;fill:#ffffff;fill-opacity:0;fill-rule:nonzero;stroke:#ffffff;stroke-width:1.42857146;stroke-opacity:0"
       d="m 915.18232,329.25507 c -16.82801,-4.07631 -29.61801,-16.64646 -29.63248,-29.12309 -0.004,-3.67052 0.51773,-8.1201 1.15996,-9.88795 1.13896,-3.13519 0.92563,-3.21429 -8.66928,-3.21429 -26.62609,0 -44.27735,-15.19363 -45.82134,-39.4415 -1.10123,-17.29444 8.00163,-32.18831 20.9371,-34.25678 l 5.50673,-0.88056 -3.52688,-8.73168 c -9.87473,-24.44736 -6.8408,-45.99231 8.9346,-63.44754 21.21822,-23.47763 57.367,-26.91101 77.35413,-7.34704 l 5.88275,5.75821 13.40296,-4.50275 c 32.7137,-10.99021 63.34773,-5.28863 82.55633,15.36533 13.5583,14.57847 18.0285,34.96357 11.4871,52.3841 -3.1357,8.35093 -14.2481,21.4668 -22.585,26.65689 -3.3701,2.09801 -3.364,2.10678 6.7073,9.59589 17.0167,12.65373 25.8546,25.07107 25.9201,36.41837 0.04,6.9496 -2.6577,12.08269 -9.6892,18.43528 -16.003,14.45777 -51.5432,16.84582 -69.48671,4.66902 -2.97734,-2.02047 -5.64576,-3.4412 -5.9298,-3.15717 -0.28403,0.28405 -3.01259,4.37847 -6.06343,9.09873 -9.14897,14.15523 -22.33668,23.20817 -38.03571,26.1103 -10.03116,1.85436 -10.75617,1.83653 -20.40923,-0.50177 z"
       id="path5190"
       inkscape:connector-curvature="0"
       transform="scale(0.26458333)" />
    <path
       style="opacity:0;fill:#ffffff;fill-opacity:0;fill-rule:nonzero;stroke:#ffffff;stroke-width:1.42857146;stroke-opacity:0"
       d="m 913.51549,329.04621 c -21.3994,-5.75343 -33.05529,-23.00564 -26.58034,-39.34231 0.80202,-2.02356 -0.80677,-2.40694 -12.37847,-2.94984 -14.34031,-0.6728 -22.22568,-3.53085 -30.21922,-10.95292 -10.51083,-9.7594 -15.15246,-29.64728 -10.31706,-44.20528 3.32763,-10.01858 11.56517,-17.42326 19.38296,-17.42326 3.14059,0 5.71017,-0.24144 5.71017,-0.53653 0,-0.29509 -1.52841,-3.99254 -3.39647,-8.21656 -8.33456,-18.84592 -8.38319,-35.46958 -0.15279,-52.22503 16.39024,-33.36724 64.36452,-44.02213 86.7329,-19.263 l 4.8678,5.38807 11.09083,-4.02028 c 16.51913,-5.98795 34.47755,-7.86998 48.1895,-5.05022 21.3002,4.38021 38.1007,16.47689 46.4226,33.42515 3.6451,7.42339 4.1023,9.86958 4.0988,21.92697 0,11.44856 -0.522,14.54335 -3.3157,19.78488 -4.0652,7.62688 -13.2408,17.75215 -19.7107,21.75075 -2.6547,1.64071 -4.8256,3.41282 -4.8242,3.93803 0,0.5252 2.9051,2.78863 6.4526,5.02985 9.4255,5.9548 22.5745,19.4472 26.1499,26.83283 11.2016,23.13959 -10.7914,42.93419 -47.6051,42.84635 -12.6936,-0.0303 -21.4608,-2.51946 -28.92427,-8.21213 -2.65913,-2.02822 -5.0275,-3.46203 -5.26303,-3.18626 -0.23553,0.27579 -2.14477,3.25704 -4.24274,6.62503 -9.18115,14.73893 -21.42609,24.34366 -35.81277,28.09091 -10.31565,2.68689 -16.2021,2.67456 -26.3552,-0.0551 z"
       id="path5192"
       inkscape:connector-curvature="0"
       transform="scale(0.26458333)" />
    <path
       style="opacity:0;fill:#ffffff;fill-opacity:0;fill-rule:nonzero;stroke:#ffffff;stroke-width:1.42857146;stroke-opacity:0"
       d=""
       id="path5194"
       inkscape:connector-curvature="0"
       transform="scale(0.26458333)" />
    <path
       style="opacity:0;fill:#ffffff;fill-opacity:0;fill-rule:nonzero;stroke:#ffffff;stroke-width:1.42857146;stroke-opacity:1"
       d=""
       id="path5196"
       inkscape:connector-curvature="0"
       transform="scale(0.26458333)" />
    <path
       transform="matrix(0.84083047,0,0,0.84083047,-76.71887,110.2076)"
       sodipodi:nodetypes="cccccc"
       inkscape:connector-curvature="0"
       id="path7252"
       d="m 155.7299,19.717549 c 37.28642,-16.9483744 58.75435,22.032879 32.76685,36.721465 36.72147,23.727718 -7.90924,38.416304 -19.7731,25.422557 C 155.7299,107.84906 124.65789,94.290382 131.43723,79.036844 103.7549,82.426523 104.88479,47.964833 120.13833,49.094721 104.31985,19.152598 142.73616,1.074337 155.7299,19.717549 Z"
       style="opacity:1;fill:#ffffff;fill-opacity:1;stroke:#ffffff;stroke-width:0.39500001;stroke-linecap:butt;stroke-linejoin:miter;stroke-miterlimit:4;stroke-dasharray:none;stroke-opacity:1;filter:url(#filter7518)"
       inkscape:export-xdpi="128.04736"
       inkscape:export-ydpi="128.04736" />
    <path
       style="opacity:1;fill:#ffffff;fill-opacity:1;fill-rule:nonzero;stroke:#ffffff;stroke-width:0.39499998;stroke-miterlimit:4;stroke-dasharray:none;stroke-opacity:1;filter:url(#filter12115)"
       d="m 159.66252,21.845632 a 13.03591,15.87073 25.865486 0 0 -11.42876,5.803263 13.03591,15.87073 0 0 0 -7.02696,-2.52336 13.03591,15.87073 0 0 0 -13.03073,15.744259 14.174107,13.985119 0 0 0 -9.46712,13.175422 14.174107,13.985119 0 0 0 12.34705,13.853935 13.03591,15.87073 25.865486 0 0 5.87303,17.238223 13.03591,15.87073 25.865486 0 0 14.89056,-3.35225 18.40136,15.14893 28.277882 0 0 3.7052,2.486671 18.40136,15.14893 28.277882 0 0 23.304,-4.81211 18.40136,15.14893 28.277882 0 0 1.30225,-4.027143 17.196731,13.750875 17.395202 0 0 12.62403,-8.295619 17.196731,13.750875 17.395202 0 0 -4.34288,-14.421342 15.14893,18.40136 72.158213 0 0 4.09949,-14.834753 15.14893,18.40136 72.158213 0 0 -22.26738,-8.609809 15.14893,18.40136 72.158213 0 0 -0.1757,0.06356 13.03591,15.87073 25.865486 0 0 -5.68492,-6.398576 13.03591,15.87073 25.865486 0 0 -4.72116,-1.090373 z"
       id="path7524"
       inkscape:connector-curvature="0"
       transform="matrix(0.95661121,0,0,0.95661121,6.7723584,2.3568471)"
       inkscape:export-xdpi="128.04736"
       inkscape:export-ydpi="128.04736" />
    <path
       style="fill:#ffffff;fill-opacity:1;stroke:#ffffff;stroke-width:0.26458332px;stroke-linecap:butt;stroke-linejoin:miter;stroke-opacity:1;filter:url(#filter12545)"
       d="m 120.5744,165.84226 c 0,0 27.59226,-9.07143 54.42857,-15.875 18.14286,0 18.14286,29.86012 0,29.86012 -26.45832,-7.18154 -54.42857,-13.98512 -54.42857,-13.98512 z"
       id="path12151"
       inkscape:connector-curvature="0"
       sodipodi:nodetypes="cccc"
       transform="matrix(1,0,0,0.5985463,1.4931536,57.18301)"
       inkscape:export-xdpi="128.04736"
       inkscape:export-ydpi="128.04736" />
  </g>
</svg>
